<?xml version="1.0" encoding="UTF-8"?>
<svg width="50" height="50" version="1.1" viewBox="0 0 677.33 601.4" xmlns="http://www.w3.org/2000/svg">
		<g transform="translate(-416.59 -267.72)">
				<path d="m750.15 339.29c-0.42392 0.053-1.9076 0.23822-3.2853 0.39703-4.504 0.52938-10.465 2.1969-15.393 4.3409-9.4054 4.0497-18.625 11.911-24.295 20.646-1.6426 2.541-128.23 222.47-128.58 223.37-0.21195 0.58232-3.8416 6.9348-9.061 15.908-1.1127 1.8793-5.2458 9.0788-9.1934 15.961-3.9741 6.8819-7.5508 12.996-7.9747 13.631-1.4307 2.091-59.691 103.55-60.671 105.66-1.4307 3.0439-2.5964 6.8819-3.2323 10.561-0.4504 2.7263-0.50339 3.9174-0.39741 7.9671 0.21195 6.8554 1.2187 11.09 4.0271 16.94 5.6167 11.62 15.949 19.587 29.011 22.393 2.358 0.52938 3.5767 0.60878 8.0807 0.60878s5.7227-0.0794 8.0807-0.60878c12.32-2.6204 21.858-9.5552 28.163-20.407 2.5169-4.3409 95.67-166.25 96.915-168.47 2.0135-3.5204 28.163-49.153 33.541-58.496 2.7554-4.8173 5.3253-9.1582 5.6697-9.6611 0.34443-0.52938 12.452-21.466 26.865-46.532 14.439-25.066 26.282-45.579 26.362-45.579 0.0795 0 7.4448 12.599 16.373 28.004 8.9285 15.378 17.115 29.46 18.175 31.286 1.0598 1.8263 3.8416 6.6437 6.1731 10.72 2.3315 4.0762 6.3586 11.038 8.955 15.484 2.5699 4.4468 6.4646 11.117 8.6106 14.823 5.8287 10.111 13.406 23.187 15.949 27.528 1.2452 2.1175 3.8946 6.6966 5.9082 10.19 2.0136 3.4939 4.9809 8.6024 6.6235 11.382 1.6162 2.7528 4.61 7.8877 6.6235 11.382 3.5502 6.1937 6.3586 11.011 13.512 23.16 1.9341 3.2821 3.9476 6.776 4.504 7.7554 1.8811 3.5204 79.933 137.93 80.992 139.52 5.8552 8.7083 15.075 14.796 25.991 17.152 2.2785 0.47644 3.5502 0.58232 8.1337 0.58232 4.663 0 5.8287-0.0794 8.2132-0.58232 8.3721-1.8263 15.287-5.532 21.063-11.302 5.7757-5.7702 9.5114-12.705 11.286-21.043 0.5299-2.3557 0.6094-3.5998 0.6094-8.2054 0-4.6056-0.079-5.8231-0.5829-8.0995-0.7948-3.6527-1.7221-6.379-3.2058-9.5023-1.0068-2.144-64.672-112.15-80.78-139.62-2.252-3.8644-4.9809-8.4965-6.0142-10.323-1.0598-1.8264-3.4972-5.982-5.4313-9.2641-1.9341-3.2822-4.8749-8.3377-6.5705-11.249-1.6691-2.9116-4.0271-6.9613-5.2193-8.9994-1.1922-2.0381-2.2255-3.8909-2.305-4.1027-0.31792-0.82054-109.24-188.43-110.64-190.55-2.9673-4.4997-8.2926-10.164-12.505-13.314-10.147-7.5966-22.493-11.699-34.84-11.567-1.8811 0.0266-3.7886 0.10594-4.239 0.13235z" fill="#164fb2" stroke-width="1.5013"/>
		</g>
</svg>
